<?xml version="1.0" encoding="UTF-8" standalone="no"?>
<svg viewBox="0 0 221.3629 204.67679" xmlns="http://www.w3.org/2000/svg" xmlns:xlink="http://www.w3.org/1999/xlink">
<defs>
<filter id="filter3227">
<feGaussianBlur stdDeviation="2.57143"/>
</filter>
<linearGradient id="linearGradient3359">
<stop offset="0" stop-color="#fff"/>
<stop offset="1" stop-color="#fff" stop-opacity="0"/>
</linearGradient>
<linearGradient gradientUnits="userSpaceOnUse" id="linearGradient2770" x2="0" y1="75.27107" y2="298.78834">
<stop offset="0" stop-color="#fff" stop-opacity=".375"/>
<stop offset="1" stop-color="#fff" stop-opacity="0"/>
</linearGradient>
<linearGradient gradientUnits="userSpaceOnUse" id="linearGradient2776" x1="442.44727" x2="449.51725" y1="555.36716" y2="690.72764">
<stop offset="0" stop-color="#96beff"/>
<stop offset="1" stop-color="#09719f"/>
</linearGradient>
<linearGradient gradientUnits="userSpaceOnUse" id="linearGradient2774" x1="369.71582" x2="389.91888" xlink:href="#linearGradient3359" y1="452.33157" y2="549.4386"/>
<linearGradient gradientUnits="userSpaceOnUse" id="linearGradient2778" x1="-139.40105" x2="-111.84524" xlink:href="#linearGradient3359" y1="490.71738" y2="632.13873"/>
<radialGradient cx="377.14288" cy="404.3631" gradientTransform="matrix(1.26528e-7,-1.00078,1.05272,1.32511e-7,-59.9651,792.657)" gradientUnits="userSpaceOnUse" id="radialGradient2768" r="216.79578">
<stop offset="0" stop-color="#fffdbc"/>
<stop offset="1" stop-color="#fcff00"/>
</radialGradient>
<radialGradient cx="-468.77777" cy="440.96008" gradientTransform="matrix(-2.06172e-2,1.02202,-.9998,-2.0169e-2,-37.5723,928.952)" gradientUnits="userSpaceOnUse" id="radialGradient2772" r="128.57143">
<stop offset="0" stop-color="#ff0"/>
<stop offset=".5" stop-color="#ffd400"/>
<stop offset="1" stop-color="#ffa900"/>
</radialGradient>
</defs>
<g transform="matrix(.46448,0,0,.46448,-22.61162,-6.93346)">
<path d="m527.11526,565.41189c-.59104.63515-78.26353-36.44536-78.96712-35.93772s9.9941,85.90985 9.205,86.27047-58.35904-63.62128-59.20334-63.42154-23.64293,83.19494-24.50997,83.22613-29.56991-81.11144-30.42638-81.25-53.68054,67.81434-54.49352,67.51135 3.72097-86.25311 2.98272-86.70888-75.54578,42.10963-76.18092,41.51859 36.44536-78.26353 35.93773-78.96712-85.90986,9.99411-86.27048,9.205 63.62128-58.35904 63.42154-59.20333-83.19493-23.64293-83.22612-24.50997 81.11143-29.56992 81.25-30.42638-67.81435-53.68054-67.51136-54.49352 86.25311,3.72097 86.70888,2.98272-42.10963-75.54578-41.51859-76.18092 78.26353,36.44536 78.96712,35.93772-9.9941-85.90985-9.205-86.27047 58.35904,63.62128 59.20334,63.42154 23.64293-83.19494 24.50997-83.22613 29.56991,81.11144 30.42638,81.25 53.68054-67.81434 54.49351-67.51135-3.72096,86.25311-2.98272,86.70888 75.54578-42.10963 76.18093-41.5186-36.44536,78.26354-35.93773,78.96713 85.90986-9.99411 86.27048-9.205-63.62129,58.35904-63.42154,59.20333 83.19493,23.64293 83.22612,24.50997-81.11143,29.56992-81.25,30.42638 67.81435,53.68054 67.51136,54.49352-86.25311-3.72097-86.70888-2.98272 42.10963,75.54578 41.51859,76.18092z" fill="#fb0" fill-rule="evenodd" transform="translate(-96.7026,-179.962)"/>
<path d="m515.48302,554.58745c-.48957.52611-66.75208-25.53377-67.33488-25.11328s3.25418,71.51982 2.60055,71.81852-51.89954-49.13504-52.59889-48.96959-24.36297,67.32102-25.08117,67.34686-29.14574-65.25596-29.85518-65.37073-48.27109,52.8732-48.9445,52.62223-1.95479-71.44223-2.5663-71.81976-64.83037,30.37593-65.35648,29.88636 25.53377-66.75209 25.11329-67.33489-71.51982,3.25419-71.81853,2.60055 49.13504-51.89953 48.96959-52.59888-67.32102-24.36298-67.34685-25.08117 65.25595-29.14575 65.37073-29.85518-52.87321-48.27109-52.62224-48.9445 71.44224-1.95479 71.81976-2.5663-30.37592-64.83037-29.88635-65.35648 66.75208,25.53377 67.33488,25.11328-3.25418-71.51982-2.60055-71.81852 51.89954,49.13504 52.59889,48.96959 24.36297-67.32102 25.08116-67.34686 29.14575,65.25596 29.85519,65.37073 48.27109-52.8732 48.9445-52.62223 1.95479,71.44223 2.56629,71.81976 64.83038-30.37593 65.35648-29.88636-25.53376,66.75209-25.11328,67.33489 71.51982-3.25419 71.81853-2.60055-49.13504,51.89953-48.96959,52.59888 67.32102,24.36298 67.34685,25.08117-65.25595,29.14575-65.37073,29.85518 52.87321,48.27109 52.62224,48.9445-71.44224,1.95479-71.81976,2.5663 30.37592,64.83037 29.88635,65.35648z" fill="url(#radialGradient2768)" fill-rule="evenodd" transform="translate(-96.7026,-179.962)"/>
<path d="m264.65193,75.63857c-7.11491-.33224-13.62065,3.99649-16.0625,10.6875-.393,1.07389-.97082,2.61196-1.34375,3.625-1.16446,3.16318-2.15212,5.79623-2.90625,7.75-.4261,1.10393-.68587,1.77979-.9375,2.375-.11559.27343-.06123.17706-.4375.9375-.53243,1.07606.01151.06996-.4375.78125-.57554.91174.03328.08377-.6875.90625-1.02102,1.16508-.95639,1.14278-1.21875,1.46875-.42882.17016-1.03632.4185-2.4375.75-1.39006.32886-2.00954.39683-2.46875.4375-.37969-.17399-.32366-.18827-1.78125-.78125-1.02073-.41526-.1289.0443-1.03125-.5-.78497-.4735.07329.09751-.71875-.5-.59785-.451-.43785-.33697-.8125-.65625-.52992-.4516-1.06325-.92185-1.90625-1.6875-1.55896-1.4159-3.63897-3.32449-6.09375-5.625-.52654-.49345-1.72315-1.69389-2.8125-2.71875-4.82542-4.54015-11.91994-5.70538-17.94407-2.94718s-9.77753,8.89024-9.49343,15.50968c.04711,1.12061.11021,2.789.15625,3.9375 .13788,3.43974.26391,6.29338.3125,8.28125 .02481,1.01508.03725,1.66127.03125,2.5-.00567.79195.00742.48318-.03125,1.0625-.05367.80408.03937-.05007-.125.90625-.18706,1.08828.07478.04306-.28125,1.09375-.49635,1.46476-.44302,1.40509-.5625,1.8125-.32696.31857-.79362.77718-1.96875,1.625-1.15292.83183-1.72099,1.13276-2.125,1.34375-.43541-.01506-.35553-.04073-1.90625-.03125-1.17583.00719-.2884.06898-1.15625-.0625-.81589-.12361.30322.08703-.875-.21875-.71675-.18601-.5344-.13035-1-.28125-.67734-.21953-1.34502-.46237-2.40625-.84375-1.94304-.6983-4.57618-1.67806-7.75-2.875-.90794-.34242-2.46567-.92335-3.65625-1.375-6.18746-2.34533-13.17886-.71474-17.69037,4.12587s-5.6466,11.92934-2.87213,17.93663c.52002,1.12113 1.23758,2.62403 1.65625,3.53125 1.42615,3.09031 2.57838,5.66104 3.40625,7.53125 .48488,1.09536.79542,1.76201 1.03125,2.34375 .14408.35543.08583.20487.34375.96875 .40878,1.21063.10651.10104.28125.875 .2731,1.20965.08627.02823.15625,1.09375 .10049,1.53003.11188,1.46135.15625,1.875-.18158.42324-.45253,1.0401-1.21875,2.28125-.75682,1.22588-1.14125,1.74072-1.4375,2.09375-.38967.14516-.34394.08117-1.78125.6875-.96985.40913.12711.04911-1.0625.34375-.96119.23806-.13531.08383-.875.1875-.6993.09801-.49973.04876-1.0625.09375-.79113.06325-1.48793.10594-2.53125.15625-2.01016.09693-4.85852.20102-8.28125.3125-1.0809.03521-2.73832.08923-3.90625.125-6.62341.1979-12.4669,4.38817-14.77928,10.59797s-.63277,13.20149 4.24803,17.68328l2.875,2.625c2.52565,2.33204 4.61952,4.25024 6.0625,5.625 .66857.63696 1.19473,1.15382 1.84375,1.8125 .50464.51216.30425.27598.71875.75 .86953.99439.06299.0245.53125.6875 .48863.69184.06902-.06325.59375,1 .70486,1.42826.70511,1.35333.90625,1.71875-.00718.45762-.05355,1.09255-.28125,2.5-.22692,1.40269-.39275,1.99643-.53125,2.4375-.30065.2777-.28238.23729-1.40625,1.375-.7697.77918.07194.04404-.84375.71875-.6597.48609.33798-.13957-.75.5-.54956.32305-.32849.18917-.9375.5-.7435.37948-1.3681.66349-2.28125,1.09375-1.90034.89541-4.46263,2.08104-7.53125,3.46875l-3.53125,1.59375c-6.02118,2.72765-9.79706,8.82351-9.55722,15.42935s4.44784,12.41183 10.65097,14.69565l3.65625,1.34375c3.14129,1.15785 5.72957,2.13754 7.71875,2.90625 1.11477.43079 1.79173.69065 2.375.9375 .52456.22199.34699.12957.96875.4375 1.09024.53993.07611-.00792.78125.4375 .71665.4527-.02588-.10233.875.6875 1.16568,1.022 1.14248.95605 1.46875,1.21875 .17012.4287.41861,1.03676.75,2.4375 .20792.87884.21474,1.07757.34375,2.53125 .40248,4.56539 2.70952,8.75003 6.3552,11.5274s8.29267,3.89051 12.80105,3.06635c73.58604,1.11874 163.07039-27.81942 230.75-70.625 4.66927-1.77985 8.26332-5.60429 9.75-10.375-.18536.59369-.44317,1.48383 1-2.0625 .41692-1.0245-.04154-.13386.5-1.03125 .47617-.78906-.09179.06532.5-.71875 .29602-.3922.04808-.0626.6875-.8125 .62089-.72818 1.04741-1.20504 1.65625-1.875 1.42413-1.56711 3.32997-3.64627 5.625-6.09375 .652-.69531 1.81683-1.91883 2.6875-2.84375 4.54015-4.82542 5.70538-11.91994 2.94718-17.94407s-8.89024-9.77753-15.50968-9.49343c-1.42735.05937-3.09682.15663-3.875.1875-3.35062.13291-6.15992.23029-8.28125.28125-1.01969.0245-1.70888.03748-2.53125.03125-.80497-.00609-.43912.00853-1.03125-.03125-.82616-.05549.07325.03839-.875-.125-1.10714-.19078-.08278.07235-1.125-.28125-1.47665-.50099-1.40918-.44456-1.8125-.5625-.31842-.32675-.77856-.7956-1.625-1.96875-.84326-1.16876-1.13646-1.72553-1.34375-2.125 .01494-.43567.0412-.35582.03125-1.90625-.0075-1.16815-.07099-.273.0625-1.15625 .11712-.77498-.13295.51358.21875-.84375 .18356-.70844.12545-.51864.28125-1 .24655-.76177.49352-1.4617.84375-2.4375 .69168-1.92709 1.67567-4.5659 2.875-7.75l1.375-3.625c2.35639-6.19507.72427-13.20017-4.12761-17.71578s-11.95598-5.64125-17.96614-2.84672c-1.10892.51489-2.60928,1.23033-3.53125,1.65625-3.04292,1.40573-5.5897,2.54588-7.53125,3.40625-1.0849.48075-1.75025.79039-2.34375,1.03125-.3405.13819-.19699.08284-.96875.34375-1.39299.47092-.11137.11563-.84375.28125-1.09773.24824-.04102.08474-1.125.15625-1.53061.10098-1.4615.11178-1.875.15625-.42337-.18167-1.03887-.45173-2.28125-1.21875-1.22084-.75371-1.71204-1.14326-2.0625-1.4375-.14632-.39409-.1072-.32994-.71875-1.78125-.41238-.97866-.05455.07611-.34375-1.09375-.23971-.96965-.08738-.15835-.1875-.875-.09906-.70908-.05055-.48773-.09375-1.03125-.06616-.83228-.10772-1.51532-.15625-2.53125-.09696-2.02984-.2029-4.86918-.3125-8.28125-.03525-1.0976-.09026-2.75545-.125-3.90625-.1979-6.62341-4.38817-12.4669-10.59797-14.77928s-13.20149-.63277-17.68328,4.24803c-.89666.97485-1.99636,2.19675-2.59375,2.84375-2.33204,2.52565-4.25024,4.61952-5.625,6.0625-.63696.66857-1.15382,1.19473-1.8125,1.84375-.51216.50464-.27598.30425-.75.71875-.99439.86953-.0245.06299-.6875.53125-.69184.48863.06325.06902-1,.59375-1.42826.70486-1.35333.70511-1.71875.90625-.45762-.00718-1.09255-.05355-2.5-.28125-1.40225-.22685-1.99655-.39277-2.4375-.53125-.27802-.30091-.23632-.2819-1.375-1.40625-.77484-.76509-.03747.0803-.71875-.84375-.48215-.65395.14798.35141-.5-.75-.31907-.54235-.18202-.31508-.5-.9375-.44261-.86638-.74476-1.44383-1.125-2.25-.86169-1.82691-2.02708-4.44695-3.4375-7.5625l-1.59375-3.53125c-2.51076-5.58765-7.944-9.29433-14.0625-9.59375z" fill="url(#linearGradient2770)" fill-rule="evenodd"/>
<path d="m-342.85713,443.79074a128.57143,128.57143 0 1,1 -257.14285,0 128.57143,128.57143 0 1,1 257.14285,0z" fill="url(#radialGradient2772)" fill-rule="evenodd" filter="url(#filter3227)" transform="matrix(.84444,0,0,.84444,667.107,-139.499)"/>
<path d="m372.0625,441.5625c-39.28363,0-73.45382,27.63477-82.1875,64.65625-2.22112,9.40929-.39989,19.31876 5.02167,27.32343s13.94785,13.3728 23.50958,14.80157c8.41343,1.24987 17.92899,1.41871 30.75.5625 23.02409-1.53759 48.51339-7.69097 75.8125-16.1875 10.16103-3.16413 18.29793-10.83274 22.05809-20.78862s2.7243-21.08887-2.80809-30.18013c-14.71516-24.16079-42.05264-40.1875-72.15625-40.1875z" fill="url(#linearGradient2774)" fill-rule="evenodd" transform="translate(-111.117,-303.046)"/>
<g transform="translate(-115.157,-292.944)">
<path d="m417.20429,525.07805c-32.47861,0-61.35312,15.4891-79.625,39.5-3.98974-.74567-8.1075-1.125-12.3125-1.125-36.80188,0-66.65626,29.8544-66.65625,66.65625s29.85437,66.68749 66.65625,66.6875c6.75152,0 13.26306-1.00612 19.40625-2.875 18.22469,19.18213 44.00349,31.15623 72.53125,31.15625 15.96209,0 31.04628-3.74613 44.4375-10.40625 13.39122,6.66012 28.47541,10.40624 44.4375,10.40625 32.87277,0 62.04923-15.89614 80.28125-40.40625 29.89462-.2526 54.0625-24.60861 54.0625-54.5625 0-27.60887-20.53053-50.42659-47.15625-54.03125-17.15145-30.43997-49.78084-51-87.1875-51-15.96456,0-31.04474,3.7442-44.4375,10.40625-13.39276-6.66205-28.47294-10.40625-44.4375-10.40625z" fill="url(#linearGradient2776)" fill-rule="evenodd"/>
<path d="m-116.15625,516.8125c-28.48888,0-54.19726,13.85076-70.125,34.78125-2.76908,3.64414-7.18818,5.37014-11.6875,4.53125-3.26379-.61-6.64584-.9375-10.125-.9375-29.07836,0-54.71875,25.64045-54.71875,54.71875 0,3.82889.28827,5.13448.1875,3.53125 .87184,13.72815 10.87982,25.14751 24.375,27.8125 32.07089,6.34387 75.54751,3.47967 127.21875-9.34375 41.69565-10.34775 86.5702-26.17276 131.125-44 9.98469-4.00373 17.09886-13.00018 18.69306-23.6389s-2.57048-21.3253-10.94306-28.07985c-14.97081-12.05443-34.36065-19.375-55.125-19.375-13.95146,0-27.41827,3.3329-39.125,9.15625-3.37158,1.67708-7.25342,1.67708-10.625,0-11.70672-5.82335-25.17354-9.15625-39.125-9.15625z" fill="url(#linearGradient2778)" fill-rule="evenodd" transform="translate(531.34,16.1624)"/>
</g>
</g>
</svg>
