<?xml version="1.0" encoding="UTF-8" standalone="no"?>
<svg viewBox="0 0 177.34335 151.12807" xmlns="http://www.w3.org/2000/svg" xmlns:xlink="http://www.w3.org/1999/xlink">
<defs>
<linearGradient id="linearGradient2593">
<stop offset="0" stop-color="#fff"/>
<stop offset="1" stop-color="#fff" stop-opacity="0"/>
</linearGradient>
<linearGradient gradientUnits="userSpaceOnUse" id="linearGradient4003" x1="442.44727" x2="449.51725" y1="555.36716" y2="690.72764">
<stop offset="0" stop-color="#96beff"/>
<stop offset="1" stop-color="#09719f"/>
</linearGradient>
<linearGradient gradientUnits="userSpaceOnUse" id="linearGradient4009" x1="161.23235" x2="218.19296" y1="558.61353" y2="625.06769">
<stop offset="0" stop-color="#008080" stop-opacity=".65441"/>
<stop offset="1" stop-color="#003434" stop-opacity=".71323"/>
</linearGradient>
<linearGradient gradientUnits="userSpaceOnUse" id="linearGradient4005" x1="-139.40105" x2="-111.84524" xlink:href="#linearGradient2593" y1="490.71738" y2="632.13873"/>
<linearGradient gradientUnits="userSpaceOnUse" id="linearGradient4007" x1="140.41121" x2="151.97734" xlink:href="#linearGradient2593" y1="489.05951" y2="588.27673"/>
</defs>
<g transform="matrix(.46448,0,0,.46448,-120.1188,-243.88698)">
<path d="m417.20429,525.07805c-32.47861,0-61.35312,15.4891-79.625,39.5-3.98974-.74567-8.1075-1.125-12.3125-1.125-36.80188,0-66.65626,29.8544-66.65625,66.65625s29.85437,66.68749 66.65625,66.6875c6.75152,0 13.26306-1.00612 19.40625-2.875 18.22469,19.18213 44.00349,31.15623 72.53125,31.15625 15.96209,0 31.04628-3.74613 44.4375-10.40625 13.39122,6.66012 28.47541,10.40624 44.4375,10.40625 32.87277,0 62.04923-15.89614 80.28125-40.40625 29.89462-.2526 54.0625-24.60861 54.0625-54.5625 0-27.60887-20.53053-50.42659-47.15625-54.03125-17.15145-30.43997-49.78084-51-87.1875-51-15.96456,0-31.04474,3.7442-44.4375,10.40625-13.39276-6.66205-28.47294-10.40625-44.4375-10.40625z" fill="url(#linearGradient4003)" fill-rule="evenodd"/>
<path d="m-116.15625,516.8125c-28.48888,0-54.19726,13.85076-70.125,34.78125-2.76908,3.64414-7.18818,5.37014-11.6875,4.53125-3.26379-.61-6.64584-.9375-10.125-.9375-29.07836,0-54.71875,25.64045-54.71875,54.71875 0,3.82889.28827,5.13448.1875,3.53125 .87184,13.72815 10.87982,25.14751 24.375,27.8125 32.07089,6.34387 75.54751,3.47967 127.21875-9.34375 41.69565-10.34775 86.5702-26.17276 131.125-44 9.98469-4.00373 17.09886-13.00018 18.69306-23.6389s-2.57048-21.3253-10.94306-28.07985c-14.97081-12.05443-34.36065-19.375-55.125-19.375-13.95146,0-27.41827,3.3329-39.125,9.15625-3.37158,1.67708-7.25342,1.67708-10.625,0-11.70672-5.82335-25.17354-9.15625-39.125-9.15625z" fill="url(#linearGradient4005)" fill-rule="evenodd" transform="translate(531.34,16.1624)"/>
</g>
<g transform="matrix(.20769,0,0,.20769,-2.68224,-3.21465)">
<path d="m241.88501,431.11745c-53.59454,77.53551-107.88594,102.00765-119.0669,121.37363-11.19274,19.38641-5.20463,50.65261 17.00875,63.4775s53.78134-.21451 63.47749-17.00875c9.6223-16.6663 1.49325-80.77648 38.58066-167.84238z" fill="#008080" fill-rule="evenodd"/>
<path d="m201.46875,489.0625c-1.19863.03661-2.33834.52825-3.1875,1.375-13.66509,13.70503-28.17936,26.54356-43.375,38.4375l-.15625.125c-10.41276,8.85116-20.9948,15.62593-27.90625,25.65625-.10172.14055-.19562.28661-.28125.4375-4.37402,8.09809-5.83453,17.91878-3.84375,26.75 .07675.34516.19206.6806.34375,1 .85637,1.79859 2.09551,3.10171 3.59375,4.0625s3.45467,1.96665 6.25.9375c.18136-.06206.35877-.13511.53125-.21875l.0625-.03125v-.03125c11.21316-4.14546 19.51641-14.01121 28.21875-24l.09375-.125c16.90656-20.91331 31.14319-43.70721 43.96875-67.40625 .80904-1.48822.75822-3.29592-.13316-4.73633s-2.48649-2.29246-4.17934-2.23242z" fill="url(#linearGradient4007)" fill-rule="evenodd"/>
<path d="m196.27189,558.64847c-5.75573,1.42925-6.49357,9.12213-10.2578,12.96727-6.46808,10.58162-15.08846,19.6902-24.0547,27.87648-2.86116,4.71365 3.34894,9.65492 7.75,6.84375 13.61462-3.93676 28.76574-13.22257 30.22936-28.70473 .11687-5.55118 3.53483-11.70859.95814-16.95152-1.00566-1.45767-2.86247-2.24624-4.625-2.03125z" fill="url(#linearGradient4009)" fill-rule="evenodd"/>
</g>
<g transform="matrix(.20769,0,0,.20769,27.34577,13.67607)">
<path d="m241.88501,431.11745c-53.59454,77.53551-107.88594,102.00765-119.0669,121.37363-11.19274,19.38641-5.20463,50.65261 17.00875,63.4775s53.78134-.21451 63.47749-17.00875c9.6223-16.6663 1.49325-80.77648 38.58066-167.84238z" fill="#008080" fill-rule="evenodd"/>
<path d="m201.46875,489.0625c-1.19863.03661-2.33834.52825-3.1875,1.375-13.66509,13.70503-28.17936,26.54356-43.375,38.4375l-.15625.125c-10.41276,8.85116-20.9948,15.62593-27.90625,25.65625-.10172.14055-.19562.28661-.28125.4375-4.37402,8.09809-5.83453,17.91878-3.84375,26.75 .07675.34516.19206.6806.34375,1 .85637,1.79859 2.09551,3.10171 3.59375,4.0625s3.45467,1.96665 6.25.9375c.18136-.06206.35877-.13511.53125-.21875l.0625-.03125v-.03125c11.21316-4.14546 19.51641-14.01121 28.21875-24l.09375-.125c16.90656-20.91331 31.14319-43.70721 43.96875-67.40625 .80904-1.48822.75822-3.29592-.13316-4.73633s-2.48649-2.29246-4.17934-2.23242z" fill="url(#linearGradient4007)" fill-rule="evenodd"/>
<path d="m196.27189,558.64847c-5.75573,1.42925-6.49357,9.12213-10.2578,12.96727-6.46808,10.58162-15.08846,19.6902-24.0547,27.87648-2.86116,4.71365 3.34894,9.65492 7.75,6.84375 13.61462-3.93676 28.76574-13.22257 30.22936-28.70473 .11687-5.55118 3.53483-11.70859.95814-16.95152-1.00566-1.45767-2.86247-2.24624-4.625-2.03125z" fill="url(#linearGradient4009)" fill-rule="evenodd"/>
</g>
<g transform="matrix(.20769,0,0,.20769,67.22721,21.18342)">
<path d="m241.88501,431.11745c-53.59454,77.53551-107.88594,102.00765-119.0669,121.37363-11.19274,19.38641-5.20463,50.65261 17.00875,63.4775s53.78134-.21451 63.47749-17.00875c9.6223-16.6663 1.49325-80.77648 38.58066-167.84238z" fill="#008080" fill-rule="evenodd"/>
<path d="m201.46875,489.0625c-1.19863.03661-2.33834.52825-3.1875,1.375-13.66509,13.70503-28.17936,26.54356-43.375,38.4375l-.15625.125c-10.41276,8.85116-20.9948,15.62593-27.90625,25.65625-.10172.14055-.19562.28661-.28125.4375-4.37402,8.09809-5.83453,17.91878-3.84375,26.75 .07675.34516.19206.6806.34375,1 .85637,1.79859 2.09551,3.10171 3.59375,4.0625s3.45467,1.96665 6.25.9375c.18136-.06206.35877-.13511.53125-.21875l.0625-.03125v-.03125c11.21316-4.14546 19.51641-14.01121 28.21875-24l.09375-.125c16.90656-20.91331 31.14319-43.70721 43.96875-67.40625 .80904-1.48822.75822-3.29592-.13316-4.73633s-2.48649-2.29246-4.17934-2.23242z" fill="url(#linearGradient4007)" fill-rule="evenodd"/>
<path d="m196.27189,558.64847c-5.75573,1.42925-6.49357,9.12213-10.2578,12.96727-6.46808,10.58162-15.08846,19.6902-24.0547,27.87648-2.86116,4.71365 3.34894,9.65492 7.75,6.84375 13.61462-3.93676 28.76574-13.22257 30.22936-28.70473 .11687-5.55118 3.53483-11.70859.95814-16.95152-1.00566-1.45767-2.86247-2.24624-4.625-2.03125z" fill="url(#linearGradient4009)" fill-rule="evenodd"/>
</g>
<g transform="matrix(.11387,0,0,.11387,16.0455,80.40107)">
<path d="m241.88501,431.11745c-53.59454,77.53551-107.88594,102.00765-119.0669,121.37363-11.19274,19.38641-5.20463,50.65261 17.00875,63.4775s53.78134-.21451 63.47749-17.00875c9.6223-16.6663 1.49325-80.77648 38.58066-167.84238z" fill="#008080" fill-rule="evenodd"/>
<path d="m201.46875,489.0625c-1.19863.03661-2.33834.52825-3.1875,1.375-13.66509,13.70503-28.17936,26.54356-43.375,38.4375l-.15625.125c-10.41276,8.85116-20.9948,15.62593-27.90625,25.65625-.10172.14055-.19562.28661-.28125.4375-4.37402,8.09809-5.83453,17.91878-3.84375,26.75 .07675.34516.19206.6806.34375,1 .85637,1.79859 2.09551,3.10171 3.59375,4.0625s3.45467,1.96665 6.25.9375c.18136-.06206.35877-.13511.53125-.21875l.0625-.03125v-.03125c11.21316-4.14546 19.51641-14.01121 28.21875-24l.09375-.125c16.90656-20.91331 31.14319-43.70721 43.96875-67.40625 .80904-1.48822.75822-3.29592-.13316-4.73633s-2.48649-2.29246-4.17934-2.23242z" fill="url(#linearGradient4007)" fill-rule="evenodd"/>
<path d="m196.27189,558.64847c-5.75573,1.42925-6.49357,9.12213-10.2578,12.96727-6.46808,10.58162-15.08846,19.6902-24.0547,27.87648-2.86116,4.71365 3.34894,9.65492 7.75,6.84375 13.61462-3.93676 28.76574-13.22257 30.22936-28.70473 .11687-5.55118 3.53483-11.70859.95814-16.95152-1.00566-1.45767-2.86247-2.24624-4.625-2.03125z" fill="url(#linearGradient4009)" fill-rule="evenodd"/>
</g>
<g transform="matrix(.16249,0,0,.16249,65.96104,21.97304)">
<path d="m241.88501,431.11745c-53.59454,77.53551-107.88594,102.00765-119.0669,121.37363-11.19274,19.38641-5.20463,50.65261 17.00875,63.4775s53.78134-.21451 63.47749-17.00875c9.6223-16.6663 1.49325-80.77648 38.58066-167.84238z" fill="#008080" fill-rule="evenodd"/>
<path d="m201.46875,489.0625c-1.19863.03661-2.33834.52825-3.1875,1.375-13.66509,13.70503-28.17936,26.54356-43.375,38.4375l-.15625.125c-10.41276,8.85116-20.9948,15.62593-27.90625,25.65625-.10172.14055-.19562.28661-.28125.4375-4.37402,8.09809-5.83453,17.91878-3.84375,26.75 .07675.34516.19206.6806.34375,1 .85637,1.79859 2.09551,3.10171 3.59375,4.0625s3.45467,1.96665 6.25.9375c.18136-.06206.35877-.13511.53125-.21875l.0625-.03125v-.03125c11.21316-4.14546 19.51641-14.01121 28.21875-24l.09375-.125c16.90656-20.91331 31.14319-43.70721 43.96875-67.40625 .80904-1.48822.75822-3.29592-.13316-4.73633s-2.48649-2.29246-4.17934-2.23242z" fill="url(#linearGradient4007)" fill-rule="evenodd"/>
<path d="m196.27189,558.64847c-5.75573,1.42925-6.49357,9.12213-10.2578,12.96727-6.46808,10.58162-15.08846,19.6902-24.0547,27.87648-2.86116,4.71365 3.34894,9.65492 7.75,6.84375 13.61462-3.93676 28.76574-13.22257 30.22936-28.70473 .11687-5.55118 3.53483-11.70859.95814-16.95152-1.00566-1.45767-2.86247-2.24624-4.625-2.03125z" fill="url(#linearGradient4009)" fill-rule="evenodd"/>
</g>
</svg>
