<?xml version="1.0" encoding="UTF-8" standalone="no"?>
<svg viewBox="0 0 744.09448819 1052.3622047" xmlns="http://www.w3.org/2000/svg" xmlns:xlink="http://www.w3.org/1999/xlink">
<defs>
<linearGradient id="linearGradient2261">
<stop offset="0" stop-color="#fff"/>
<stop offset="1" stop-color="#fff" stop-opacity="0"/>
</linearGradient>
<linearGradient gradientUnits="userSpaceOnUse" id="linearGradient2318" x1="325.55533" x2="320.22644" y1="249.8591" y2="474.1716">
<stop offset="0" stop-color="#fbffff"/>
<stop offset="1" stop-color="#fff" stop-opacity="0"/>
</linearGradient>
<linearGradient gradientUnits="userSpaceOnUse" id="linearGradient2320" x1="454.55542" x2="460.92078" y1="397.44736" y2="655.9223">
<stop offset="0" stop-color="#fff"/>
<stop offset=".5" stop-color="#fff" stop-opacity=".53725"/>
<stop offset="1" stop-color="#767676" stop-opacity=".07451"/>
</linearGradient>
<linearGradient gradientUnits="userSpaceOnUse" id="linearGradient2324" x1="-81.89831" x2="-26.41499" xlink:href="#linearGradient2261"/>
<linearGradient gradientUnits="userSpaceOnUse" id="linearGradient2326" x2="0" xlink:href="#linearGradient2261" y1="698.09601" y2="653.7959"/>
<linearGradient gradientUnits="userSpaceOnUse" id="linearGradient2328" x1="679.289" x2="629.57104" xlink:href="#linearGradient2261" y1="545.25897" y2="552.44684"/>
<radialGradient cx="376.73111" cy="609.92222" gradientUnits="userSpaceOnUse" id="radialGradient2310" r="394.685">
<stop offset="0" stop-color="#fb0000"/>
<stop offset="1" stop-color="#ff8f00" stop-opacity=".01569"/>
</radialGradient>
<radialGradient cx="376.73111" cy="609.92218" gradientTransform="matrix(1.62317,-2.064176e-7,1.612990e-7,1.26838,-234.7656,-163.6877)" gradientUnits="userSpaceOnUse" id="radialGradient2312" r="315.4028">
<stop offset="0" stop-color="#ff3500"/>
<stop offset="1" stop-color="#ff0" stop-opacity=".36905"/>
</radialGradient>
<radialGradient cx="376.73111" cy="609.92218" gradientTransform="matrix(1.62317,-2.064176e-7,1.612990e-7,1.26838,-234.7656,-163.6877)" gradientUnits="userSpaceOnUse" id="radialGradient2314" r="315.4028">
<stop offset="0" stop-color="#ff0"/>
<stop offset="1" stop-color="#ff2d00" stop-opacity=".36863"/>
</radialGradient>
<radialGradient cx="376.73111" cy="609.922" gradientUnits="userSpaceOnUse" id="radialGradient2316" r="323.33102">
<stop offset="0" stop-color="#f00"/>
<stop offset="1" stop-color="#fcff30" stop-opacity=".27381"/>
</radialGradient>
<radialGradient cx="454.55542" cy="534.06982" gradientTransform="matrix(1,0,0,.52934,0,251.3632)" gradientUnits="userSpaceOnUse" id="radialGradient2322" r="274.76712">
<stop offset="0" stop-opacity=".45238"/>
<stop offset="1" stop-opacity=".10714"/>
</radialGradient>
</defs>
<g transform="translate(-25.84749,99.69749)">
<path d="m692.13391,609.92218a315.4028,319.78339 0 1,1 -630.8056,0 315.4028,319.78339 0 1,1 630.8056,0z" fill="#ff6400" stroke="url(#radialGradient2310)" stroke-linecap="round" stroke-linejoin="round" stroke-width="158.56438" transform="matrix(.60139,0,0,.60139,107.99,-18.97256)"/>
<path d="m692.13391,609.92218a315.4028,319.78339 0 1,1 -630.8056,0 315.4028,319.78339 0 1,1 630.8056,0z" fill="url(#radialGradient2312)" transform="matrix(.60139,0,0,.60139,107.99,-18.97256)"/>
<path d="m692.13391,609.92218a315.4028,319.78339 0 1,1 -630.8056,0 315.4028,319.78339 0 1,1 630.8056,0z" fill="url(#radialGradient2314)" opacity=".78893" transform="matrix(.60139,0,0,.60139,107.99,-18.97256)"/>
<path d="m692.13391,609.92218a315.4028,319.78339 0 1,1 -630.8056,0 315.4028,319.78339 0 1,1 630.8056,0z" fill="none" opacity=".78893" stroke="url(#radialGradient2316)" stroke-linecap="round" stroke-linejoin="round" stroke-width="15.85644" transform="matrix(.6166,0,0,.6166,102.22692,-28.28287)"/>
<path d="m464.02403,383.40448a138.4687,133.54538 0 1,1 -276.93741,0 138.4687,133.54538 0 1,1 276.93741,0z" fill="url(#linearGradient2318)" opacity=".78893" transform="matrix(1.15487,0,0,.96313,-39.95642,-76.94691)"/>
<path d="m418.65504,392.62896c-58.15255,4.80426-105.57685,28.16321-118.84275,55.81393-7.96404-3.42221-16.54677-4.97442-25.3627-4.2461-13.02332,1.07593-24.72007,6.98406-34.09685,16.20739-3.98147-.66768-8.08348-.91075-12.2939-.56291-27.03481,2.23349-47.18913,25.74692-44.97994,52.48787 1.87987,22.75467 19.36271,40.47628 41.18545,43.89967 8.98394,22.23042 25.80791,38.62517 45.45627,43.87343 .0131.33633-.02634.66957.00152,1.00688 1.53849,18.62239 25.25693,31.93093 54.15531,31.56056 17.33195,28.49855 51.76334,46.5095 89.80443,43.36673 39.70702-3.28036 71.74856-28.63526 82.98211-61.61502 26.00722,11.2131 59.36182,16.62406 95.27,13.65752 77.87202-6.43336 137.94752-49.56907 134.08748-96.29227-3.09545-37.46868-46.39621-65.87517-103.57597-72.35761-.01013-.19114.02298-.38075.00717-.57214-1.62655-19.68838-32.7662-33.19152-69.49828-30.15692-2.39753.19809-4.64878.63144-6.97002.95685-16.6585-25.96187-68.06137-41.92426-127.32933-37.02786z" fill="url(#linearGradient2320)" stroke="url(#radialGradient2322)" stroke-linecap="round" stroke-linejoin="round" stroke-width="6.25"/>
</g>
<path d="m-11.0775,644.95648a33.84791,33.23249 0 1,1 -67.69582,0 33.84791,33.23249 0 1,1 67.69582,0z" fill="url(#linearGradient2324)" transform="matrix(1,0,0,1.16927,241.24323,-147.32637)"/>
<path d="m424.63738,664.03436a61.54165,37.54041 0 1,1 -123.0833,0 61.54165,37.54041 0 1,1 123.0833,0z" fill="url(#linearGradient2326)" transform="matrix(1.17375,0,0,1.04793,-48.31766,33.91428)"/>
<path d="m683.11228,545.25897a53.54123,61.54165 0 1,1 -107.08247,0 53.54123,61.54165 0 1,1 107.08247,0z" fill="url(#linearGradient2328)" transform="matrix(1.46935,0,0,1.02742,-310.87527,77.9756)"/>
</svg>
