<?xml version="1.0" encoding="UTF-8" standalone="no"?>
<svg viewBox="0 0 110 110" xmlns="http://www.w3.org/2000/svg">
<defs>
<filter id="filter3946">
<feGaussianBlur stdDeviation=".9798"/>
</filter>
<filter id="filter6874">
<feGaussianBlur stdDeviation="3.0305"/>
</filter>
<filter id="filter3868">
<feGaussianBlur stdDeviation="2.0203"/>
</filter>
<linearGradient gradientUnits="userSpaceOnUse" id="linearGradient11231" x1="63.07749" x2="183.10757" y1="386.0705" y2="268.05807">
<stop offset="0" stop-color="#ff0"/>
<stop offset="1" stop-color="#ff0" stop-opacity="0"/>
</linearGradient>
<linearGradient gradientUnits="userSpaceOnUse" id="linearGradient11233" x1="142.84888" x2="124.29892" y1="208.27547" y2="313.86554">
<stop offset="0" stop-color="#fff"/>
<stop offset="1" stop-color="#fff" stop-opacity="0"/>
</linearGradient>
<radialGradient cx="115.06458" cy="341.25684" gradientTransform="matrix(.99926,-.03854,.05657,1.46669,-19.21891,-154.82674)" gradientUnits="userSpaceOnUse" id="radialGradient11229" r="50.50763">
<stop offset="0" stop-color="#ff0"/>
<stop offset="1" stop-color="#fea917"/>
</radialGradient>
</defs>
<g id="sunny" transform="translate(-44.38785,-258.78115)">
<path d="m126.25,352.5 2.40625,52.28125-5.90625-32.28125 4.15625,32.8125-4.1875-17.78125-2.625-16.21875 1.71875,12.34375-5.5625-23.71875 7.59375,43.03125-7.59375-25.84375 3.96875,21.3125-13.78125-40.5625 12.28125,44-10.53125-26.125 5.9375,20.625-14.71875-31.8125 13.90625,40.59375-9.9375-16.9375-3.40625-6.5625 1.34375,3.03125-11.90625-20.28125 21.28125,46.78125-.96875-1.34375-18-27.71875 6.78125,12.09375-7.5-10.4375 10.1875,17.84375-20.6875-28.65625 22.3125,35.59375-13.5625-16.96875 13.75,20.21875-32.40625-36.75 26.8125,34.75-15.84375-16.28125 17.65625,21.1875-29.9375-27.8125 32.5,35.25-12.5-9.375-28.9375-22.09375 37.375,33.375-31.03125-18.90625 4.1875,3.15625-1.53125-.9375 10.375,7.6875 4.8125,3.65625-31.9375-17.34375 31.0625,21.25-15.5-8.5 18.75,10.71875 2.15625,1.46875-44.625-18.875 34.46875,18.9375-17-7.28125 20.59375,9.25 7.625,4.1875-20.90625-6.625-21.40625-7.96875 15.71875,6.15625-5.875-1.875 13.25,5.75-9.8125-2.875 27.375,12.40625-2.09375-.40625-45.21875-11.96875 36.0625,10.21875-21.53125-4.125 16.375,5.59375-30.8125-4.3125 15.6875,4.46875-.625-.0937 .71875.125 19.75,5.65625-13.59375-.5625-7.15625-.84375 5,.75-25.25-1.0625 43.1875,7.90625-3.125.15625-23.78125-.46875 16.46875.84375-15.40625.78125 19.21875,1.71875-34.3125,1.03125 46.9375.0937 .9375.0937-27.4375,3.6875 32.625-1.5312-30.34375,3.90625-4.34375.53125-21.90625,2.8125 50.46875-4.8125-28.8125,6.75 22.71875-3.28125-15.65625,4.53125-9.5,2.125 6.3125-1.21875-16.3125,4.71875 45.28125-8.8125-30.375,9.6875 22.1875-6.40625-38.53125,15.28125 46.21875-13.75-30.625,13.15625 33.09375-13.15625-29.5,15 4.34375-1.75-19.1875,9.40625 31.1875-14.21875 13.15625-5.3125-24,14.9375 30.0625-15.9375-49.8125,30.71875 48.3125-28-27.625,21.15625 19.625-13-17.46875,14.8125-3.125,2.34375 2.125-1.5-9.9375,8.40625 41.25-30.34375-26.6875,25.96875 6.625-5.3125-18.65625,19.1875 32.03125-28.71875 7.65625-6.8125-24.96875,29.5 13.625-13.28125-4.25,5.53125-6.03125,7.46875 1.84375-2-11.6875,15.3125 31.25-33.78125-1.03125,1.65625-13.75,19.53125 6.65625-8.15625-18.5,29.84375 29.625-39.03125-13.75,24.25 12.46875-18.625-16.1875,32.09375 22.40625-37.34375 3-4.84375-13.59375,31.71875 5.21875-10.09375-10.9375,28.25 22.375-47.15625-11.15625,35.0625 8.46875-21.125-1.125,4.28125-4.59375,16.09375 1.21875-3.3125-4.84375,18.28125 12.65625-36.875-5.5,22.9375 6.9375-18.59375-6.34375,38.9375 9.4375-39.625-3.40625,24.40625 4.40625-16.5625-2.8125,30.9375 3.84375-18.0625-.21875,3.09375 .90625-6.375 4.09375-19.25 .3125,45.6875 5.4375-48.25 3.0625,30.40625 .5-25.15625 4.1875,37.25-3.96875-46.0625 5.375,28.0625-1.875-27.40625 10.21875,48.21875-8.78125-47.5 8.40625,28.65625-2.6875-16.125 9.78125,28.1875-8.6875-39.5625 6.6875,14.53125 3.46875,9-2.03125-5.90625 10.5625,22.9375-14.625-45.25 2.21875,3.84375 12.3125,24.5625-7.125-15.59375 7.65625,13.21875-6.1875-14.4375 15.375,27.25-21.125-40.84375 15.59375,24.5625-21.09375-37.59375 36.875,52.65625-26.125-40.34375 18.71875,23.96875-17.25-24.75 28.71875,33.25-19.1875-24.78125 11.3125,13.34375-22.8125-28.96875 22.375,22-5.875-7.53125 24.0625,22.90625-35.75-37.9375-1.6875-2.1875 26.9375,21.84375-9.78125-10.34375 13.03125,10.3125-7.03125-6.1875 16.3125,11.90625-27.4375-26.28125 36.21875,21.4375-34.75-27.34375 18.4375,8.71875 7.21875,3.875-4.3125-2.5 2.84375,1.34375-20.15625-13.03125 35.4375,16.84375-41-21.15625 27.96875,10.71875-38.1875-16.59375-3.84375-2.5 25.4375,9.1875 17.25,6.3125-2.09375-.84375 22.0625,7.96875-44.78125-17.84375 30.1875,8.3125-32.1875-10.40625 46.34375,10.3125-15.90625-4.28125-24.9375-7.34375 21.78125,3.5625-25-6.40625 50.28125,6.1875-49.65625-8.34375 29.03125,1.875-19.9375-3.09375 33.1875.46875-14.03125-1.4375 4.6875.125-11.46875-.84375-24.5625-2.5625 19.0625-1.5625 11.5-.5-4.0625-.125 23.28125-1.9375-53.1875-.34375 37.125-5.21875-13.78125.90625 12.3125-2.1875-15.59375,1.34375 29.625-5.65625-42.59375,4.9375 27.4375-6.40625-19.34375,2.5625 36.9375-10.84375-43.8125,9.4375 27.90625-9.4375-22.40625,5.25 33.90625-13.375-26.28125,7.5625 8.8125-3.375-24.96875,7.53125 42.96875-21.96875-26.5625,10.5 8.84375-4.40625-28.84375,11.84375 .34375-.21875 38.3125-21.46875-17.1875,8.09375 5.5-3.5-25.125,12.71875-9.25,4.34375 29.15625-19.78125-6.375,3.59375 4.84375-3.34375-2,1.1875 19.25-13.40625-45.6875,27.1875 28.3125-23.5-6.28125,4.375 4.71875-3.96875-22.53125,16.40625 31.5-28.90625-31.21875,24.15625 13.5-13.40625-22.25,20.21875 22.21875-24.53125-1.40625,1.3125 15.65625-17.4375-30,28.28125 12.6875-15.3125-21.125,23.28125 20.625-27.75-7.5,8.53125 12.59375-16.90625-29.96875,36.59375-1.40625,1.59375 18-30.59375-6.96875,9.90625 4.9375-8.0625-4.78125,7.0625 15.09375-24.9375-29,43.375 15.84375-34.125-6.25,11.03125 4.3125-8.90625-11.90625,21.90625 15.46875-38.09375-18.75,37.1875 7.6875-21.59375-8.59375,19.4375 12.53125-42.3125-15.71875,40.5625 5.8125-23.21875-7.71875,23.28125 5.0625-25.59375-2.9375,10.3125 4.34375-21.84375-7.8125,28.125 2.59375-14.59375-3.75,18.84375-4.65625,16.78125 2.15625-22.0625 1.25-11.875-.125.75 2.125-21.5625-5.28125,30.0625 1.21875-15.4375-2,19.96875-3.28125,18.59375v-2l1.46875-50.40625-1.28125,25.34375 .0625-9.25-2.0625,25.1875-1.90625-22.5625 .96875,34.0625-.5625,7.03125-.1875-1-2.625-41.46875 .4375,10.90625-2.1875-32.40625z" fill="#fd5" filter="url(#filter3946)" opacity=".8" transform="matrix(.54141,0,0,.54141,28.74933,68.8717)"/>
<path d="m184.85792,316.97113c0,27.89459-22.61303,50.50763-50.50762,50.50763s-50.50763-22.61304-50.50763-50.50763 22.61303-50.50763 50.50763-50.50763 50.50762,22.61304 50.50762,50.50763z" fill="#fd5" filter="url(#filter6874)" opacity=".94" transform="matrix(.7053,0,0,.7053,5.46932,91.68254)"/>
<path d="m184.85792,316.97113c0,27.89459-22.61303,50.50763-50.50762,50.50763s-50.50763-22.61304-50.50763-50.50763 22.61303-50.50763 50.50763-50.50763 50.50762,22.61304 50.50762,50.50763z" fill="url(#radialGradient11229)" transform="matrix(.61053,0,0,.61053,18.03489,120.70694)"/>
<path d="m184.85792,316.97113c0,27.89459-22.61303,50.50763-50.50762,50.50763s-50.50763-22.61304-50.50763-50.50763 22.61303-50.50763 50.50763-50.50763 50.50762,22.61304 50.50762,50.50763z" fill="url(#linearGradient11231)" filter="url(#filter3868)" transform="matrix(.56169,0,0,.56169,25.03302,136.18868)"/>
<path d="m184.85792,316.97113c0,27.89459-22.61303,50.50763-50.50762,50.50763s-50.50763-22.61304-50.50763-50.50763 22.61303-50.50763 50.50763-50.50763 50.50762,22.61304 50.50762,50.50763z" fill="url(#linearGradient11233)" transform="matrix(.56169,0,0,.56169,25.03302,136.18868)"/>
</g>
</svg>
