<?xml version="1.0" encoding="UTF-8" standalone="no"?>
<svg viewBox="0 0 456.52191 456.52194" xmlns="http://www.w3.org/2000/svg" xmlns:xlink="http://www.w3.org/1999/xlink">
<defs>
<filter id="filter7434">
<feGaussianBlur stdDeviation=".98401"/>
</filter>
<filter id="filter7619">
<feGaussianBlur stdDeviation="2.48436"/>
</filter>
<filter height="1.43951" id="filter7785" width="1.52871" x="-.26435" y="-.21976">
<feGaussianBlur stdDeviation="3.38782"/>
</filter>
<linearGradient id="linearGradient7555">
<stop offset="0" stop-color="#ff0"/>
<stop offset="1" stop-color="#ff0" stop-opacity="0"/>
</linearGradient>
<linearGradient id="linearGradient7666">
<stop offset="0" stop-color="#666"/>
<stop offset="1" stop-color="#666" stop-opacity="0"/>
</linearGradient>
<linearGradient gradientUnits="userSpaceOnUse" id="linearGradient9795" x1="553.92859" x2="552.14288" y1="20.93361" y2="74.50504">
<stop offset="0" stop-color="#f60"/>
<stop offset="1" stop-color="#f60" stop-opacity="0"/>
</linearGradient>
<linearGradient gradientUnits="userSpaceOnUse" id="linearGradient9829" x1="565.68542" x2="527.29962" y1="50.79593" y2="178.58023">
<stop offset="0" stop-color="#fff"/>
<stop offset="1" stop-color="#fff" stop-opacity="0"/>
</linearGradient>
<linearGradient gradientUnits="userSpaceOnUse" id="linearGradient9823" x1="566.07141" x2="576.42859" xlink:href="#linearGradient7666" y1="130.93361" y2="163.79076"/>
<linearGradient gradientUnits="userSpaceOnUse" id="linearGradient9825" x1="506.07141" x2="491.07144" xlink:href="#linearGradient7666" y1="114.86218" y2="147.71933"/>
<linearGradient gradientUnits="userSpaceOnUse" id="linearGradient9827" x1="537.14288" x2="511.42856" xlink:href="#linearGradient7555" y1="166.64789" y2="163.79076"/>
<radialGradient cx="522.91431" cy="139.57465" gradientTransform="matrix(1.16667,.15591,-.12142,.90859,-60.76852,-66.63595)" gradientUnits="userSpaceOnUse" id="radialGradient9819" r="93.94418" xlink:href="#linearGradient7555"/>
</defs>
<g transform="matrix(1.42789,0,0,1.42789,-526.5606,12.17653)">
<path d="m526.19663,66.95067c0,0-4.23264-19.76476 9.30865-30.29687s27.08259-10.53212 27.08259-22.56883-5.35714-20.25099-5.35714-20.25099 19.18368,15.65688 18.89843,29.27852c-.43315,20.68415-15.55278,21.6469-16.04129,29.73462-.56226,9.30866 5.30407,21.62649 5.30407,21.62649z" filter="url(#filter7434)"/>
<path d="m526.19663,66.95067c0,0-4.23264-19.76476 9.30865-30.29687s27.08259-10.53212 27.08259-22.56883-5.35714-20.25099-5.35714-20.25099 19.18368,15.65688 18.89843,29.27852c-.43315,20.68415-15.55278,21.6469-16.04129,29.73462-.56226,9.30866 5.30407,21.62649 5.30407,21.62649z" fill="#ff0"/>
<path d="m561.03125-.5625c2.19179,6.28571 3.64113,13.38858 1.59375,19.875-3.36928,6.95428-11.54202,8.89-17.71875,12.5625-7.48568,3.83003-14.80598,9.47011-16.91327,18.03013-1.61771,5.22018-1.73758,10.81934-.86798,16.18862l36.5,6.96875c-2.80815-7.05556-5.64561-14.82308-4.0756-22.48345 2.82493-5.98995 9.92413-8.61675 12.54264-14.86237 4.18761-7.71181 3.95153-17.69089-1.17454-24.91667-2.80884-4.65901-6.41062-8.59862-10.26125-12.36251l.375,1z" fill="url(#linearGradient9795)"/>
<g transform="matrix(-1,0,0,-1,1057.2559,302.66299)">
<path d="m526.19663,66.95067c0,0-4.23264-19.76476 9.30865-30.29687s27.08259-10.53212 27.08259-22.56883-5.35714-20.25099-5.35714-20.25099 19.18368,15.65688 18.89843,29.27852c-.43315,20.68415-15.55278,21.6469-16.04129,29.73462-.56226,9.30866 5.30407,21.62649 5.30407,21.62649z" filter="url(#filter7434)"/>
<path d="m526.19663,66.95067c0,0-4.23264-19.76476 9.30865-30.29687s27.08259-10.53212 27.08259-22.56883-5.35714-20.25099-5.35714-20.25099 19.18368,15.65688 18.89843,29.27852c-.43315,20.68415-15.55278,21.6469-16.04129,29.73462-.56226,9.30866 5.30407,21.62649 5.30407,21.62649z" fill="#ff0"/>
<path d="m561.03125-.5625c2.19179,6.28571 3.64113,13.38858 1.59375,19.875-3.36928,6.95428-11.54202,8.89-17.71875,12.5625-7.48568,3.83003-14.80598,9.47011-16.91327,18.03013-1.61771,5.22018-1.73758,10.81934-.86798,16.18862l36.5,6.96875c-2.80815-7.05556-5.64561-14.82308-4.0756-22.48345 2.82493-5.98995 9.92413-8.61675 12.54264-14.86237 4.18761-7.71181 3.95153-17.69089-1.17454-24.91667-2.80884-4.65901-6.41062-8.59862-10.26125-12.36251l.375,1z" fill="url(#linearGradient9795)"/>
</g>
<g transform="matrix(.86603,.5,-.5,.86603,146.48846,-244.0394)">
<path d="m526.19663,66.95067c0,0-4.23264-19.76476 9.30865-30.29687s27.08259-10.53212 27.08259-22.56883-5.35714-20.25099-5.35714-20.25099 19.18368,15.65688 18.89843,29.27852c-.43315,20.68415-15.55278,21.6469-16.04129,29.73462-.56226,9.30866 5.30407,21.62649 5.30407,21.62649z" filter="url(#filter7434)"/>
<path d="m526.19663,66.95067c0,0-4.23264-19.76476 9.30865-30.29687s27.08259-10.53212 27.08259-22.56883-5.35714-20.25099-5.35714-20.25099 19.18368,15.65688 18.89843,29.27852c-.43315,20.68415-15.55278,21.6469-16.04129,29.73462-.56226,9.30866 5.30407,21.62649 5.30407,21.62649z" fill="#ff0"/>
<path d="m561.03125-.5625c2.19179,6.28571 3.64113,13.38858 1.59375,19.875-3.36928,6.95428-11.54202,8.89-17.71875,12.5625-7.48568,3.83003-14.80598,9.47011-16.91327,18.03013-1.61771,5.22018-1.73758,10.81934-.86798,16.18862l36.5,6.96875c-2.80815-7.05556-5.64561-14.82308-4.0756-22.48345 2.82493-5.98995 9.92413-8.61675 12.54264-14.86237 4.18761-7.71181 3.95153-17.69089-1.17454-24.91667-2.80884-4.65901-6.41062-8.59862-10.26125-12.36251l.375,1z" fill="url(#linearGradient9795)"/>
</g>
<g transform="matrix(-.86603,-.5,.5,-.86603,910.76744,546.70239)">
<path d="m526.19663,66.95067c0,0-4.23264-19.76476 9.30865-30.29687s27.08259-10.53212 27.08259-22.56883-5.35714-20.25099-5.35714-20.25099 19.18368,15.65688 18.89843,29.27852c-.43315,20.68415-15.55278,21.6469-16.04129,29.73462-.56226,9.30866 5.30407,21.62649 5.30407,21.62649z" filter="url(#filter7434)"/>
<path d="m526.19663,66.95067c0,0-4.23264-19.76476 9.30865-30.29687s27.08259-10.53212 27.08259-22.56883-5.35714-20.25099-5.35714-20.25099 19.18368,15.65688 18.89843,29.27852c-.43315,20.68415-15.55278,21.6469-16.04129,29.73462-.56226,9.30866 5.30407,21.62649 5.30407,21.62649z" fill="#ff0"/>
<path d="m561.03125-.5625c2.19179,6.28571 3.64113,13.38858 1.59375,19.875-3.36928,6.95428-11.54202,8.89-17.71875,12.5625-7.48568,3.83003-14.80598,9.47011-16.91327,18.03013-1.61771,5.22018-1.73758,10.81934-.86798,16.18862l36.5,6.96875c-2.80815-7.05556-5.64561-14.82308-4.0756-22.48345 2.82493-5.98995 9.92413-8.61675 12.54264-14.86237 4.18761-7.71181 3.95153-17.69089-1.17454-24.91667-2.80884-4.65901-6.41062-8.59862-10.26125-12.36251l.375,1z" fill="url(#linearGradient9795)"/>
</g>
<g transform="matrix(.5,.86603,-.86603,.5,395.37089,-382.13949)">
<path d="m526.19663,66.95067c0,0-4.23264-19.76476 9.30865-30.29687s27.08259-10.53212 27.08259-22.56883-5.35714-20.25099-5.35714-20.25099 19.18368,15.65688 18.89843,29.27852c-.43315,20.68415-15.55278,21.6469-16.04129,29.73462-.56226,9.30866 5.30407,21.62649 5.30407,21.62649z" filter="url(#filter7434)"/>
<path d="m526.19663,66.95067c0,0-4.23264-19.76476 9.30865-30.29687s27.08259-10.53212 27.08259-22.56883-5.35714-20.25099-5.35714-20.25099 19.18368,15.65688 18.89843,29.27852c-.43315,20.68415-15.55278,21.6469-16.04129,29.73462-.56226,9.30866 5.30407,21.62649 5.30407,21.62649z" fill="#ff0"/>
<path d="m561.03125-.5625c2.19179,6.28571 3.64113,13.38858 1.59375,19.875-3.36928,6.95428-11.54202,8.89-17.71875,12.5625-7.48568,3.83003-14.80598,9.47011-16.91327,18.03013-1.61771,5.22018-1.73758,10.81934-.86798,16.18862l36.5,6.96875c-2.80815-7.05556-5.64561-14.82308-4.0756-22.48345 2.82493-5.98995 9.92413-8.61675 12.54264-14.86237 4.18761-7.71181 3.95153-17.69089-1.17454-24.91667-2.80884-4.65901-6.41062-8.59862-10.26125-12.36251l.375,1z" fill="url(#linearGradient9795)"/>
</g>
<g transform="matrix(-.5,-.86603,.86603,-.5,661.88501,684.80248)">
<path d="m526.19663,66.95067c0,0-4.23264-19.76476 9.30865-30.29687s27.08259-10.53212 27.08259-22.56883-5.35714-20.25099-5.35714-20.25099 19.18368,15.65688 18.89843,29.27852c-.43315,20.68415-15.55278,21.6469-16.04129,29.73462-.56226,9.30866 5.30407,21.62649 5.30407,21.62649z" filter="url(#filter7434)"/>
<path d="m526.19663,66.95067c0,0-4.23264-19.76476 9.30865-30.29687s27.08259-10.53212 27.08259-22.56883-5.35714-20.25099-5.35714-20.25099 19.18368,15.65688 18.89843,29.27852c-.43315,20.68415-15.55278,21.6469-16.04129,29.73462-.56226,9.30866 5.30407,21.62649 5.30407,21.62649z" fill="#ff0"/>
<path d="m561.03125-.5625c2.19179,6.28571 3.64113,13.38858 1.59375,19.875-3.36928,6.95428-11.54202,8.89-17.71875,12.5625-7.48568,3.83003-14.80598,9.47011-16.91327,18.03013-1.61771,5.22018-1.73758,10.81934-.86798,16.18862l36.5,6.96875c-2.80815-7.05556-5.64561-14.82308-4.0756-22.48345 2.82493-5.98995 9.92413-8.61675 12.54264-14.86237 4.18761-7.71181 3.95153-17.69089-1.17454-24.91667-2.80884-4.65901-6.41062-8.59862-10.26125-12.36251l.375,1z" fill="url(#linearGradient9795)"/>
</g>
<g transform="matrix(0,1,-1,0,679.95944,-377.29646)">
<path d="m526.19663,66.95067c0,0-4.23264-19.76476 9.30865-30.29687s27.08259-10.53212 27.08259-22.56883-5.35714-20.25099-5.35714-20.25099 19.18368,15.65688 18.89843,29.27852c-.43315,20.68415-15.55278,21.6469-16.04129,29.73462-.56226,9.30866 5.30407,21.62649 5.30407,21.62649z" filter="url(#filter7434)"/>
<path d="m526.19663,66.95067c0,0-4.23264-19.76476 9.30865-30.29687s27.08259-10.53212 27.08259-22.56883-5.35714-20.25099-5.35714-20.25099 19.18368,15.65688 18.89843,29.27852c-.43315,20.68415-15.55278,21.6469-16.04129,29.73462-.56226,9.30866 5.30407,21.62649 5.30407,21.62649z" fill="#ff0"/>
<path d="m561.03125-.5625c2.19179,6.28571 3.64113,13.38858 1.59375,19.875-3.36928,6.95428-11.54202,8.89-17.71875,12.5625-7.48568,3.83003-14.80598,9.47011-16.91327,18.03013-1.61771,5.22018-1.73758,10.81934-.86798,16.18862l36.5,6.96875c-2.80815-7.05556-5.64561-14.82308-4.0756-22.48345 2.82493-5.98995 9.92413-8.61675 12.54264-14.86237 4.18761-7.71181 3.95153-17.69089-1.17454-24.91667-2.80884-4.65901-6.41062-8.59862-10.26125-12.36251l.375,1z" fill="url(#linearGradient9795)"/>
</g>
<g transform="matrix(0,-1,1,0,377.29646,679.95945)">
<path d="m526.19663,66.95067c0,0-4.23264-19.76476 9.30865-30.29687s27.08259-10.53212 27.08259-22.56883-5.35714-20.25099-5.35714-20.25099 19.18368,15.65688 18.89843,29.27852c-.43315,20.68415-15.55278,21.6469-16.04129,29.73462-.56226,9.30866 5.30407,21.62649 5.30407,21.62649z" filter="url(#filter7434)"/>
<path d="m526.19663,66.95067c0,0-4.23264-19.76476 9.30865-30.29687s27.08259-10.53212 27.08259-22.56883-5.35714-20.25099-5.35714-20.25099 19.18368,15.65688 18.89843,29.27852c-.43315,20.68415-15.55278,21.6469-16.04129,29.73462-.56226,9.30866 5.30407,21.62649 5.30407,21.62649z" fill="#ff0"/>
<path d="m561.03125-.5625c2.19179,6.28571 3.64113,13.38858 1.59375,19.875-3.36928,6.95428-11.54202,8.89-17.71875,12.5625-7.48568,3.83003-14.80598,9.47011-16.91327,18.03013-1.61771,5.22018-1.73758,10.81934-.86798,16.18862l36.5,6.96875c-2.80815-7.05556-5.64561-14.82308-4.0756-22.48345 2.82493-5.98995 9.92413-8.61675 12.54264-14.86237 4.18761-7.71181 3.95153-17.69089-1.17454-24.91667-2.80884-4.65901-6.41062-8.59862-10.26125-12.36251l.375,1z" fill="url(#linearGradient9795)"/>
</g>
<g transform="matrix(-.5,.86603,-.86603,-.5,923.99884,-230.808)">
<path d="m526.19663,66.95067c0,0-4.23264-19.76476 9.30865-30.29687s27.08259-10.53212 27.08259-22.56883-5.35714-20.25099-5.35714-20.25099 19.18368,15.65688 18.89843,29.27852c-.43315,20.68415-15.55278,21.6469-16.04129,29.73462-.56226,9.30866 5.30407,21.62649 5.30407,21.62649z" filter="url(#filter7434)"/>
<path d="m526.19663,66.95067c0,0-4.23264-19.76476 9.30865-30.29687s27.08259-10.53212 27.08259-22.56883-5.35714-20.25099-5.35714-20.25099 19.18368,15.65688 18.89843,29.27852c-.43315,20.68415-15.55278,21.6469-16.04129,29.73462-.56226,9.30866 5.30407,21.62649 5.30407,21.62649z" fill="#ff0"/>
<path d="m561.03125-.5625c2.19179,6.28571 3.64113,13.38858 1.59375,19.875-3.36928,6.95428-11.54202,8.89-17.71875,12.5625-7.48568,3.83003-14.80598,9.47011-16.91327,18.03013-1.61771,5.22018-1.73758,10.81934-.86798,16.18862l36.5,6.96875c-2.80815-7.05556-5.64561-14.82308-4.0756-22.48345 2.82493-5.98995 9.92413-8.61675 12.54264-14.86237 4.18761-7.71181 3.95153-17.69089-1.17454-24.91667-2.80884-4.65901-6.41062-8.59862-10.26125-12.36251l.375,1z" fill="url(#linearGradient9795)"/>
</g>
<g transform="matrix(.5,-.86603,.86603,.5,133.25706,533.47099)">
<path d="m526.19663,66.95067c0,0-4.23264-19.76476 9.30865-30.29687s27.08259-10.53212 27.08259-22.56883-5.35714-20.25099-5.35714-20.25099 19.18368,15.65688 18.89843,29.27852c-.43315,20.68415-15.55278,21.6469-16.04129,29.73462-.56226,9.30866 5.30407,21.62649 5.30407,21.62649z" filter="url(#filter7434)"/>
<path d="m526.19663,66.95067c0,0-4.23264-19.76476 9.30865-30.29687s27.08259-10.53212 27.08259-22.56883-5.35714-20.25099-5.35714-20.25099 19.18368,15.65688 18.89843,29.27852c-.43315,20.68415-15.55278,21.6469-16.04129,29.73462-.56226,9.30866 5.30407,21.62649 5.30407,21.62649z" fill="#ff0"/>
<path d="m561.03125-.5625c2.19179,6.28571 3.64113,13.38858 1.59375,19.875-3.36928,6.95428-11.54202,8.89-17.71875,12.5625-7.48568,3.83003-14.80598,9.47011-16.91327,18.03013-1.61771,5.22018-1.73758,10.81934-.86798,16.18862l36.5,6.96875c-2.80815-7.05556-5.64561-14.82308-4.0756-22.48345 2.82493-5.98995 9.92413-8.61675 12.54264-14.86237 4.18761-7.71181 3.95153-17.69089-1.17454-24.91667-2.80884-4.65901-6.41062-8.59862-10.26125-12.36251l.375,1z" fill="url(#linearGradient9795)"/>
</g>
<g transform="matrix(-.86603,.5,-.5,-.86603,1062.0989,18.07443)">
<path d="m526.19663,66.95067c0,0-4.23264-19.76476 9.30865-30.29687s27.08259-10.53212 27.08259-22.56883-5.35714-20.25099-5.35714-20.25099 19.18368,15.65688 18.89843,29.27852c-.43315,20.68415-15.55278,21.6469-16.04129,29.73462-.56226,9.30866 5.30407,21.62649 5.30407,21.62649z" filter="url(#filter7434)"/>
<path d="m526.19663,66.95067c0,0-4.23264-19.76476 9.30865-30.29687s27.08259-10.53212 27.08259-22.56883-5.35714-20.25099-5.35714-20.25099 19.18368,15.65688 18.89843,29.27852c-.43315,20.68415-15.55278,21.6469-16.04129,29.73462-.56226,9.30866 5.30407,21.62649 5.30407,21.62649z" fill="#ff0"/>
<path d="m561.03125-.5625c2.19179,6.28571 3.64113,13.38858 1.59375,19.875-3.36928,6.95428-11.54202,8.89-17.71875,12.5625-7.48568,3.83003-14.80598,9.47011-16.91327,18.03013-1.61771,5.22018-1.73758,10.81934-.86798,16.18862l36.5,6.96875c-2.80815-7.05556-5.64561-14.82308-4.0756-22.48345 2.82493-5.98995 9.92413-8.61675 12.54264-14.86237 4.18761-7.71181 3.95153-17.69089-1.17454-24.91667-2.80884-4.65901-6.41062-8.59862-10.26125-12.36251l.375,1z" fill="url(#linearGradient9795)"/>
</g>
<g transform="matrix(.86603,-.5,.5,.86603,-4.84303,284.58856)">
<path d="m526.19663,66.95067c0,0-4.23264-19.76476 9.30865-30.29687s27.08259-10.53212 27.08259-22.56883-5.35714-20.25099-5.35714-20.25099 19.18368,15.65688 18.89843,29.27852c-.43315,20.68415-15.55278,21.6469-16.04129,29.73462-.56226,9.30866 5.30407,21.62649 5.30407,21.62649z" filter="url(#filter7434)"/>
<path d="m526.19663,66.95067c0,0-4.23264-19.76476 9.30865-30.29687s27.08259-10.53212 27.08259-22.56883-5.35714-20.25099-5.35714-20.25099 19.18368,15.65688 18.89843,29.27852c-.43315,20.68415-15.55278,21.6469-16.04129,29.73462-.56226,9.30866 5.30407,21.62649 5.30407,21.62649z" fill="#ff0"/>
<path d="m561.03125-.5625c2.19179,6.28571 3.64113,13.38858 1.59375,19.875-3.36928,6.95428-11.54202,8.89-17.71875,12.5625-7.48568,3.83003-14.80598,9.47011-16.91327,18.03013-1.61771,5.22018-1.73758,10.81934-.86798,16.18862l36.5,6.96875c-2.80815-7.05556-5.64561-14.82308-4.0756-22.48345 2.82493-5.98995 9.92413-8.61675 12.54264-14.86237 4.18761-7.71181 3.95153-17.69089-1.17454-24.91667-2.80884-4.65901-6.41062-8.59862-10.26125-12.36251l.375,1z" fill="url(#linearGradient9795)"/>
</g>
<path d="m616.19302,152.82133a93.94418,90.40865 0 1,1 -187.88836,0 93.94418,90.40865 0 1,1 187.88836,0z" fill="#d45500" transform="matrix(.95251,0,0,.95251,30.44001,6.49926)"/>
<path d="m525.65625,70.90625c-35.38581.4672-69.25348,24.92992-79.1875,59.0625-9.35413,31.74322 3.44483,68.724 31.00807,87.21413 27.65086,19.94072 67.91501,21.6253 96.64818,2.78587 22.96092-14.38021 38.85953-40.6624 38.25-68.25-.02046-28.66376-16.71741-56.23682-41.85178-69.61557-13.52089-7.65494-29.22611-11.60882-44.86697-11.19693z" fill="url(#radialGradient9819)" filter="url(#filter7619)"/>
<path d="m616.19302,152.82133a93.94418,90.40865 0 1,1 -187.88836,0 93.94418,90.40865 0 1,1 187.88836,0z" fill="#d45500" transform="matrix(.95251,0,0,.95251,30.09189,4.30353)"/>
<path d="m525.65625,70.90625c-35.38581.4672-69.25348,24.92992-79.1875,59.0625-9.35413,31.74322 3.44483,68.724 31.00807,87.21413 27.65086,19.94072 67.91501,21.6253 96.64818,2.78587 22.96092-14.38021 38.85953-40.6624 38.25-68.25-.02046-28.66376-16.71741-56.23682-41.85178-69.61557-13.52089-7.65494-29.22611-11.60882-44.86697-11.19693z" fill="url(#radialGradient9819)" filter="url(#filter7619)"/>
<path d="m471.74124,102.31371 53.03301,22.22336c-7.89688,15.5593-26.22747,37.51805-41.92133,29.7995-17.68313-3.92849-19.92994-30.41328-11.11168-52.02286z" fill="#fff" stroke="#000"/>
<path d="m535.87077,126.32587 57.14598,6.38076c-3.19305,17.15392-14.59405,43.38776-31.82683,40.40372-18.07359,1.21296-27.69157-23.5658-25.31915-46.78448z" fill="#fff" stroke="#000"/>
<path d="m524.52171,124.53707 3.90931.24116 4.34654.71166 3.13769.87359-.3125,3.3876c-4.1199.0183-8.18802-.26116-11.83865-2.94117z" stroke="#000"/>
<path d="m474.32162,106.883 45.23063,18.9538c-6.73507,13.27017-22.36881,31.99828-35.75374,25.4153-15.08153-3.35051-16.99779-25.93878-9.47689-44.3691z" stroke="#000" stroke-width=".85288"/>
<path d="m539.85133,130.00335 48.85789,5.45534c-2.72995,14.66603-12.47742,37.09508-27.21086,34.54383-15.45232,1.03704-23.67536-20.14797-21.64703-39.99917z" stroke="#000" stroke-width=".85497"/>
<path d="m593.21429,132.36218 21.42857-1.42857 1.78571,7.14286-25.35714,2.85714z"/>
<path d="m471.42857,102.36218-7.5-10.71429-4.64285,4.64286 9.64285,13.92857z"/>
<path d="m539.85133,130.00335 48.85789,5.45534c-2.72995,14.66603-12.47742,37.09508-27.21086,34.54383-15.45232,1.03704-23.67536-20.14797-21.64703-39.99917z" fill="url(#linearGradient9823)" stroke="#000" stroke-width=".85497"/>
<path d="m474.32162,106.883 45.23063,18.9538c-6.73507,13.27017-22.36881,31.99828-35.75374,25.4153-15.08153-3.35051-16.99779-25.93878-9.47689-44.3691z" fill="url(#linearGradient9825)" stroke="#000" stroke-width=".85288"/>
<path d="m481.09679,187.74469c0,0 9.36484,18.72968 22.94385,22.94386s23.88035,1.87297 31.37222-.93649 13.57901-9.36484 13.57901-9.36484" fill="none" stroke="#000" stroke-linecap="round" stroke-width="2"/>
<path d="m485.35169,185.18003c0,0-2.47046-.4569-4.24986.62084s-2.69414,2.3154-3.27244,3.29946-.71245,2.10768-.71245,2.10768" fill="none" stroke="#000" stroke-linecap="round" stroke-width=".94958"/>
<path d="m552.23309,204.5262c0,0 .30423-2.31531-.86755-3.91711s-2.45005-2.39324-3.45751-2.88416-2.12636-.56288-2.12636-.56288" fill="none" stroke="#000" stroke-linecap="round" stroke-width=".91122"/>
<path d="m524.13749,148.77452c.46039,3.38485-1.88466,6.31422-4.38957,8.27943-2.07871,1.64225-4.25599,3.28328-6.87522,3.93247-3.46466,1.02042-7.2151,1.42952-10.26552,3.52015-2.68921,1.50772-6.25859,2.12833-7.8499,5.05229-.94061,1.97212-.11419,4.23381.69034,6.11162 1.36471,2.85999 3.54911,5.20018 5.59702,7.57761 4.58555,3.32335 10.78595,2.9987 15.88448,1.14065 1.9369-.73437 3.99967-1.46025 5.3153-3.15361 1.77391-1.94412 3.58222-4.66267 2.54966-7.386-.72577-1.39687-14.46387,2.40644-14.78014.78702-1.37999-4.61188 12.74628-14.28615 14.2479-18.65018 .39983-2.26998.88203-4.73837.0337-6.95892l-.15807-.25253z" fill="#dc7300" filter="url(#filter7785)" transform="matrix(1,0,0,1.10815,-1.01015,-19.4369)"/>
<path d="m526.28947,138.8498c0,0-4.41942,20.17252-14.14214,19.44661-11.34289-.84687-22.22335,8.5079-21.2132,14.58497s7.07107,15.80038 17.17259,15.80038 18.18275-9.72331 18.18275-9.72331v-1.21542" fill="url(#linearGradient9827)" stroke="#000" stroke-width="1.0969"/>
<path d="m483.41379,97.19191c1.64768.01347 3.29545.0099 4.94318.0088 4.68734.0101 9.37603-.0047 14.06177.13293 .80662.02369 2.3367.55395 3.1842.7507 1.49581.21469 2.81595.89115 4.03673,1.74716 .90169.9518 2.00156,1.64229 2.93494,2.55942 .92339,1.07844 1.89523,2.07905 2.6566,3.28889 .65385,1.443 1.98846,2.15311 3.09565,3.1701 .73307.65421 1.68153.83302 2.61419,1.01784l-11.11885,1.45755c-.99011-.34457-1.92275-.76017-2.67732-1.51669-1.22626-1.00379-2.34297-2.05291-3.12013-3.463-.79177-1.08835-1.72303-2.05534-2.65174-3.02656-.94924-.81575-1.94357-1.58819-2.93129-2.35364-1.22096-.68026-2.49743-1.16251-3.88695-1.38945-.54773-.12797-1.45473-.34839-2.00149-.44022-.36808-.06182-1.48333-.13764-1.11018-.14564 17.52084-.37588 11.76527.0068 7.97204-.03795-1.61055-.00099-3.22116-.005-4.83166.0088l-11.16969-1.7691z" fill="#ff7f2a"/>
<path d="m541.27093,115.76334c1.76832.0759 3.52002-.0244 5.27376-.2425 5.49432-.61502 11.13984-.97912 16.617-.17303 .26565.0388.54353.0276.79693.11624 .84157.29432 2.34406,1.4877 3.22258,1.99565 1.53219.6475 3.14961,1.18308 4.78167,1.52869 1.78216.28435 3.58843.33626 5.38935.36249 3.89886-.005 9.53412.20479-8.6502-.023-.3903-.005.97951-.0949 2.00344-.43145 1.07541-.29712 2.07866-.78318 3.12775-1.15311l11.1559,1.44438c-1.1031.25204-2.07038.76457-3.13928,1.10178-.44486.15586-.86307.38432-1.31257.52627-4.52145,1.42792-9.52196.22842-14.24927.25767-1.81693-.0695-3.64456-.17602-5.41754-.60902-1.65224-.48482-3.33591-.95918-4.82754-1.84161-1.26243-.75018-2.41566-1.63664-3.95482-1.6494-4.15036-.32862-1.57233-.10133 9.30046-.11443 .33067-.0004-.66098.0221-.99126.0381-.9383.0455-1.87639.11352-2.80866.23094-1.71493.22004-3.41089.51393-5.14801.40443l-11.16969-1.76911z" fill="#ff7f2a"/>
<path d="m528.59375,70.875c-.97751-.0082-1.95995.0055-2.9375.03125-22.05678.29122-43.52026,9.90715-58.96875,25.375 3.95211,20.07757 15.37115,38.69703 32.5,50.1875 27.65086,19.94072 67.92308,21.62068 96.65625,2.78125 5.46572-3.42313 10.52457-7.5272 15.0625-12.15625-4.56336-23.10492-19.56151-43.92121-40.375-55-12.67583-7.17651-27.27489-11.09572-41.9375-11.21875z" fill="url(#linearGradient9829)"/>
</g>
</svg>
